{
    "asset": {
        "generator": "Khronos glTF Blender I/O v3.6.27",
        "version": "2.0"
    },
    "scene": 0,
    "scenes": [
        {
            "name": "ATP Synthase",
            "nodes": [0]
        }
    ],
    "nodes": [
        {
            "mesh": 0,
            "name": "ATP_Synthase",
            "rotation": [0, 0, 0, 1],
            "scale": [1, 1, 1],
            "translation": [0, 0, 0]
        }
    ],
    "materials": [
        {
            "doubleSided": true,
            "name": "ATP_Material",
            "pbrMetallicRoughness": {
                "baseColorFactor": [0.13, 0.59, 0.95, 1],
                "metallicFactor": 0.5,
                "roughnessFactor": 0.3
            }
        }
    ],
    "meshes": [
        {
            "name": "ATP_Synthase_Mesh",
            "primitives": [
                {
                    "attributes": {
                        "POSITION": 1,
                        "NORMAL": 2,
                        "TEXCOORD_0": 3
                    },
                    "indices": 0,
                    "material": 0
                }
            ]
        }
    ],
    "animations": [
        {
            "channels": [
                {
                    "sampler": 0,
                    "target": {
                        "node": 0,
                        "path": "rotation"
                    }
                }
            ],
            "name": "Rotation",
            "samplers": [
                {
                    "input": 4,
                    "interpolation": "LINEAR",
                    "output": 5
                }
            ]
        }
    ],
    "accessors": [
        {
            "bufferView": 0,
            "componentType": 5123,
            "count": 2880,
            "type": "SCALAR"
        },
        {
            "bufferView": 1,
            "componentType": 5126,
            "count": 560,
            "max": [1, 3, 1],
            "min": [-1, -3, -1],
            "type": "VEC3"
        },
        {
            "bufferView": 2,
            "componentType": 5126,
            "count": 560,
            "type": "VEC3"
        },
        {
            "bufferView": 3,
            "componentType": 5126,
            "count": 560,
            "type": "VEC2"
        },
        {
            "bufferView": 4,
            "componentType": 5126,
            "count": 100,
            "max": [4.166667],
            "min": [0],
            "type": "SCALAR"
        },
        {
            "bufferView": 5,
            "componentType": 5126,
            "count": 100,
            "type": "VEC4"
        }
    ],
    "bufferViews": [
        {
            "buffer": 0,
            "byteLength": 5760,
            "target": 34963
        },
        {
            "buffer": 0,
            "byteLength": 6720,
            "byteOffset": 5760,
            "target": 34962
        },
        {
            "buffer": 0,
            "byteLength": 6720,
            "byteOffset": 12480,
            "target": 34962
        },
        {
            "buffer": 0,
            "byteLength": 4480,
            "byteOffset": 19200,
            "target": 34962
        },
        {
            "buffer": 0,
            "byteLength": 400,
            "byteOffset": 23680
        },
        {
            "buffer": 0,
            "byteLength": 1600,
            "byteOffset": 24080
        }
    ],
    "buffers": [
        {
            "byteLength": 25680,
            "uri": "data:application/octet-stream;base64,[BASE64_ENCODED_BUFFER_DATA]"
        }
    ]
}