{
    "asset": {
        "generator": "Khronos glTF Blender I/O v3.6.27",
        "version": "2.0"
    },
    "scene": 0,
    "scenes": [
        {
            "name": "Photosystem II",
            "nodes": [0]
        }
    ],
    "nodes": [
        {
            "mesh": 0,
            "name": "PhotosystemII",
            "rotation": [0, 0, 0, 1],
            "scale": [1, 1, 1],
            "translation": [0, 0, 0]
        }
    ],
    "materials": [
        {
            "doubleSided": true,
            "name": "PSII_Material",
            "pbrMetallicRoughness": {
                "baseColorFactor": [0.54, 0.76, 0.29, 1],
                "metallicFactor": 0.4,
                "roughnessFactor": 0.6
            }
        }
    ],
    "meshes": [
        {
            "name": "PhotosystemII_Mesh",
            "primitives": [
                {
                    "attributes": {
                        "POSITION": 1,
                        "NORMAL": 2,
                        "TEXCOORD_0": 3
                    },
                    "indices": 0,
                    "material": 0
                }
            ]
        }
    ],
    "accessors": [
        {
            "bufferView": 0,
            "componentType": 5123,
            "count": 3600,
            "type": "SCALAR"
        },
        {
            "bufferView": 1,
            "componentType": 5126,
            "count": 720,
            "max": [2, 1.5, 1],
            "min": [-2, -1.5, -1],
            "type": "VEC3"
        },
        {
            "bufferView": 2,
            "componentType": 5126,
            "count": 720,
            "type": "VEC3"
        },
        {
            "bufferView": 3,
            "componentType": 5126,
            "count": 720,
            "type": "VEC2"
        }
    ],
    "bufferViews": [
        {
            "buffer": 0,
            "byteLength": 7200,
            "target": 34963
        },
        {
            "buffer": 0,
            "byteLength": 8640,
            "byteOffset": 7200,
            "target": 34962
        },
        {
            "buffer": 0,
            "byteLength": 8640,
            "byteOffset": 15840,
            "target": 34962
        },
        {
            "buffer": 0,
            "byteLength": 5760,
            "byteOffset": 24480,
            "target": 34962
        }
    ],
    "buffers": [
        {
            "byteLength": 30240,
            "uri": "data:application/octet-stream;base64,[BASE64_ENCODED_BUFFER_DATA]"
        }
    ]
}